<?xml version="1.0" encoding="utf-8"?>
<!-- Generator: Adobe Illustrator 26.5.2, SVG Export Plug-In . SVG Version: 6.00 Build 0)  -->
<svg version="1.1" id="Layer_1" xmlns="http://www.w3.org/2000/svg" xmlns:xlink="http://www.w3.org/1999/xlink" x="0px" y="0px"
	 viewBox="0 0 64 64" style="enable-background:new 0 0 64 64;" xml:space="preserve">
<style type="text/css">
	.st0{fill:#1AA3A5;}
	.st1{fill:#FFFFFF;}
</style>
<circle class="st0" cx="32" cy="32" r="32"/>
<g>
	<path class="st1" d="M45.1,49.1c-0.3,0-0.6,0-0.9,0c-0.1,0-0.3-0.1-0.4-0.1c-3.5-0.4-6.5-2.9-7.4-6.3c-1-3.5,0.3-7.2,3.1-9.3
		c0.3-0.2,0.5-0.4,0.8-0.6c-0.1-0.2-0.2-0.5-0.3-0.7c-0.1-0.1-0.1-0.1-0.2-0.2c-0.1,0.2-0.2,0.4-0.3,0.6c-2.5,2.6-5,5.3-7.5,7.9
		c-0.5,0.6-1.1,0.9-1.9,0.8c-0.7,0-1.5,0-2.2,0c0,0.2-0.1,0.3-0.1,0.4c-0.5,3-2.1,5.2-4.8,6.6c-0.9,0.4-1.8,0.6-2.8,0.9
		c-0.7,0-1.4,0-2.1,0c-0.1,0-0.3-0.1-0.4-0.1c-3.2-0.6-5.4-2.3-6.7-5.3c-0.3-0.7-0.5-1.6-0.7-2.3c0-0.7,0-1.3,0-2
		c0-0.2,0.1-0.3,0.1-0.5c0.8-4.2,4.4-7.2,8.6-7.2c1.4,0,2.8,0.4,4.1,1c0.5-0.7,1-1.4,1.4-2.1c0.1-0.1,0.1-0.2,0.1-0.3
		c-0.4-0.7-0.7-1.5-1.2-1.9c-1.2-1-1.6-2.4-0.7-3.7c2.4-3.3,4.8-6.5,7.2-9.8c0.5-0.6,1.1-1,1.9-0.9c0.1,0,0.3,0,0.5,0
		c-0.1-0.3-0.2-0.5-0.3-0.6c-0.8-1.8-0.2-3.8,1.4-4.8C34,8.3,34.4,8.2,34.8,8c0.5,0,0.9,0,1.4,0c0.1,0,0.2,0.1,0.2,0.1
		c2.1,0.7,3.2,2.5,2.7,4.6c-0.5,1.9-2.4,3.1-4.4,2.7c-0.1,0-0.3,0-0.5,0c0.4,1,0.2,1.9-0.4,2.8c-0.1,0.1-0.1,0.3,0,0.4
		c0.1,1,0.2,2.1,0.4,3.1c0,0.2,0.3,0.5,0.5,0.5c0.6,0.2,1.2,0.3,1.8,0.5c0.9,0.3,1.7,0.6,2.6,0.9c0.1,0,0.3,0,0.4,0
		c1.1-0.3,2,0,2.4,0.9c0.5,0.9,0.2,1.8-0.6,2.5c-0.2,0.1-0.3,0.4-0.4,0.6c-0.1,0.6-0.1,1.2-0.1,1.8c0,1,0.4,1.9,1,2.8
		c0.2-0.1,0.4-0.1,0.6-0.2c5.6-1.5,10.5,2.8,10.8,7.2c0,0.1,0.1,0.2,0.2,0.3c0,0.7,0,1.4,0,2.1c-0.1,0.1-0.1,0.3-0.2,0.4
		c-0.7,3.3-2.6,5.5-5.8,6.7C46.7,48.9,45.9,49,45.1,49.1z M42.9,34.4c0.1,0.2,0.2,0.4,0.3,0.6c0.7,1.5,1.4,3,2.1,4.5
		c0.1,0.2,0.2,0.3,0.2,0.5c0.1,0.4,0,0.8-0.4,1c-0.5,0.2-0.8,0-1.1-0.3c-0.1-0.1-0.2-0.3-0.2-0.5c-0.7-1.6-1.5-3.1-2.2-4.7
		c-0.1-0.2-0.2-0.3-0.3-0.5c-2.6,1.5-3.6,5.2-2.1,8c1.6,3,5.1,4.2,8.1,2.8c3.1-1.5,4.4-5,3-8.2C49.1,35,45.6,33.4,42.9,34.4z
		 M25.1,41.2c-0.2,0-0.4,0-0.6,0c-1.7,0-3.3,0-5,0c-0.4,0-0.9,0-1.1-0.5c-0.3-0.5,0-0.9,0.2-1.2c0.3-0.4,0.6-0.9,0.9-1.4
		c0.7-1.1,1.5-2.2,2.2-3.3c-1.9-1.2-5-0.8-6.8,0.9c-2.2,2-2.7,4.9-1.4,7.5c1.3,2.4,4.1,3.7,6.7,3.2C22.9,45.9,25,43.7,25.1,41.2z
		 M33,36.6c0.2-0.1,0.3-0.1,0.3-0.1c1.9-2,3.8-4,5.7-5.9c0.1-0.1,0.3-0.3,0.3-0.5c0-0.8,0.1-1.6,0-2.5c0-0.7-0.5-1.1-1.2-1
		c-0.2,0-0.5,0-0.7-0.1c-1.6-0.4-3.1-0.8-4.6-1.2c-0.9-0.2-1.4-0.8-1.5-1.8c0-0.4-0.1-0.7-0.2-1.2c-0.9,1.2-1.8,2.4-2.6,3.5
		c-0.4,0.6-0.4,0.6,0.2,0.9c1.6,0.9,3.2,1.8,4.8,2.6c1,0.6,1.3,1.3,0.9,2.4C33.8,33.3,33.4,34.9,33,36.6z M29.5,36c0,0,0.1,0,0.1,0
		c0.3-1.2,0.6-2.5,0.9-3.7c0.1-0.4,0-0.6-0.3-0.8c-1.2-0.6-2.3-1.3-3.4-1.9c-0.2-0.1-0.4-0.2-0.7-0.3C27.3,31.7,28.4,33.9,29.5,36z
		 M25.2,39.5c-0.2-1.5-0.9-2.7-2-3.7c-0.9,1.3-1.7,2.4-2.5,3.7C22.2,39.5,23.6,39.5,25.2,39.5z M24.6,33.7c1.7,1.5,2.7,3.3,3.1,5.5
		c0.1,0.3,0.5,0.5,1.1,0.3c0.4-0.1,0.3-0.4,0.2-0.7c-0.3-0.6-0.5-1.1-0.8-1.7c-0.8-1.6-1.7-3.3-2.5-5C25.3,32.7,25,33.2,24.6,33.7z"
		/>
	<path class="st1" d="M26.4,12.4c0.9,0,1.7,0.5,2.2,1.3c0.5,0.9,0.5,1.8-0.1,2.6c-1.4,2-2.8,3.9-4.2,5.8c-0.8,1.1-2.4,1.2-3.5,0.3
		c-1-0.8-1.3-2.4-0.5-3.4c1.3-1.9,2.7-3.7,4.1-5.5C24.8,12.7,25.5,12.4,26.4,12.4z"/>
</g>
</svg>
