<?xml version="1.0" encoding="utf-8"?>
<!-- Generator: Adobe Illustrator 26.5.2, SVG Export Plug-In . SVG Version: 6.00 Build 0)  -->
<svg version="1.1" id="Layer_1" xmlns="http://www.w3.org/2000/svg" xmlns:xlink="http://www.w3.org/1999/xlink" x="0px" y="0px"
	 viewBox="0 0 64 64" style="enable-background:new 0 0 64 64;" xml:space="preserve">
<style type="text/css">
	.st0{fill:#D3D3D3;}
	.st1{fill:#FFFFFF;}
</style>
<circle class="st0" cx="32" cy="32" r="32"/>
<path class="st1" d="M17.3,20.1c-0.3,0-0.6,0-0.9,0c0,0.2,0,0.4,0,0.7c0,1.7,0,3.3,0,5c0,0.5-0.2,0.7-0.7,0.7c-0.5,0-0.9,0-1.4,0
	c-0.4,0-0.5-0.2-0.5-0.5c0-1.9,0-3.8,0-5.7c0-0.2,0.2-0.6,0.4-0.6c0.8-0.3,1.6-0.5,2.5-0.7c0.4-0.1,0.6-0.1,0.8-0.6
	c0.3-0.9,0.9-1.4,1.8-1.7c4.5-1.5,9.1-2,13.8-1.9c3.9,0.1,7.6,0.7,11.3,1.8c1.1,0.3,1.8,0.9,2.2,2c0,0.1,0.3,0.3,0.5,0.3
	c0.8,0.2,1.7,0.4,2.5,0.7c0.4,0.1,0.5,0.4,0.5,0.8c0,1.8,0,3.6,0,5.4c0,0.5-0.2,0.7-0.7,0.7c-0.4,0-0.8,0-1.2,0
	c-0.5,0-0.7-0.2-0.7-0.7c0-1.7,0-3.3,0-5c0-0.2,0-0.4,0-0.6c-0.3,0-0.6,0-0.9,0c0,0.2,0,0.5,0,0.7c0,7.3,0,14.6,0,21.9
	c0,1.3-0.4,2.4-1.6,3.1c-0.1,0.1-0.2,0.3-0.2,0.5c0,0.6,0,1.2,0,1.8c0,0.8-0.4,1.2-1.1,1.2c-0.7,0-1.3,0-2,0c-0.7,0-1.1-0.4-1.1-1.1
	c0-0.6,0-1.3,0-2c-5.8,0-11.5,0-17.2,0c0,0.6,0,1.3,0,1.9c0,0.8-0.3,1.2-1.2,1.2c-0.6,0-1.3,0-1.9,0c-0.7,0-1.1-0.4-1.1-1.1
	c0-0.6,0-1.3,0-1.9c0-0.2-0.1-0.4-0.3-0.5c-1.1-0.7-1.6-1.7-1.6-3c0-7.3,0-14.6,0-21.9C17.3,20.6,17.3,20.4,17.3,20.1z M32,21.4
	c-3.7,0-7.5,0-11.2,0c-1.3,0-2,0.7-2,1.9c0,3.5,0,7,0,10.5c0,0.7,0.2,1,0.9,1.2c1,0.3,1.9,0.6,2.9,0.8c4.4,0.9,8.8,1.1,13.2,0.7
	c2.8-0.2,5.5-0.6,8.1-1.4c1-0.3,1.1-0.5,1.1-1.5c0-3.3,0-6.7,0-10c0-1.5-0.6-2.1-2.1-2.1C39.3,21.4,35.7,21.4,32,21.4z M32,19
	c1.8,0,3.6,0,5.4,0c0.2,0,0.4,0,0.5,0c0.4-0.1,0.7-0.3,0.6-0.7c-0.1-0.3-0.3-0.5-0.6-0.7c-0.1-0.1-0.3-0.1-0.5-0.1
	c-3.6,0-7.2,0-10.8,0c-0.2,0-0.4,0-0.6,0.1c-0.2,0.2-0.5,0.4-0.5,0.6c0,0.2,0.2,0.5,0.5,0.7c0.1,0.1,0.4,0.1,0.6,0.1
	C28.4,19,30.2,19,32,19z M37.5,44.5c0.1-1.2-0.3-1.7-1.5-1.7c-2.7,0-5.4,0-8.1,0c-1.1,0-1.6,0.6-1.4,1.7
	C30.2,44.5,33.8,44.5,37.5,44.5z M23.5,41.5c0.4-0.2,0.9-0.3,1-0.6c0.1-0.2-0.1-0.7-0.3-1c-0.8-1-1.8-1.7-2.9-2.2
	c-0.6-0.3-1.2-0.2-1.8,0.2c-0.9,0.8-0.8,2.2,0.3,2.6C21.1,41.1,22.3,41.2,23.5,41.5z M40.4,41.4C40.4,41.4,40.4,41.4,40.4,41.4
	c0.9-0.1,1.9-0.2,2.8-0.4c0.4-0.1,0.7-0.2,1-0.4c0.8-0.4,1-1.3,0.6-2.1c-0.4-0.8-1.3-1.2-2-0.8c-1.3,0.6-2.4,1.4-3.2,2.6
	c-0.4,0.6-0.2,1,0.5,1.1C40.2,41.4,40.3,41.4,40.4,41.4z"/>
</svg>
