<?xml version="1.0" encoding="utf-8"?>
<!-- Generator: Adobe Illustrator 26.5.2, SVG Export Plug-In . SVG Version: 6.00 Build 0)  -->
<svg version="1.1" id="Layer_1" xmlns="http://www.w3.org/2000/svg" xmlns:xlink="http://www.w3.org/1999/xlink" x="0px" y="0px"
	 viewBox="0 0 64 64" style="enable-background:new 0 0 64 64;" xml:space="preserve">
<style type="text/css">
	.st0{fill:#EB5325;}
	.st1{fill:#FFFFFF;}
</style>
<circle class="st0" cx="32" cy="32" r="32"/>
<g>
	<path class="st1" d="M11.6,38.5c-0.6,0-1.1,0-1.7,0c-0.9-0.1-1.6-0.7-1.6-1.6c0-1.7,0-3.5,0.2-5.2c0.2-1.6,1.1-2.6,2.7-3
		c0.4-0.1,0.8-0.2,1.1-0.3c2.2-0.4,4.1-1.3,5.9-2.7c3-2.4,6.6-3.1,10.3-3c4.1,0.1,8.1,0.9,11.7,2.8c1.4,0.7,2.7,1.8,4,2.6
		c0.6,0.4,1.4,0.7,2.1,0.9c2,0.5,4,0.8,6,1.3c2.5,0.7,3.3,1.8,3.4,4.4c0,1-0.1,2.1-0.2,3.1c-0.1,0.5-0.4,0.7-1,0.7
		c-0.8,0-1.7,0-2.6,0c0.2-2-0.3-3.7-1.8-5c-1-0.9-2.2-1.3-3.5-1.2c-3,0.1-4.7,2.2-4.9,6.1c-6.6,0-13.3,0-19.9,0
		c-0.1-3.8-2-6.1-5.1-6.1C13.6,32.2,11.7,34.5,11.6,38.5z M30.7,24.4c0.2,1.2,0.3,2.3,0.4,3.4c0.1,0.6,0.3,0.8,0.9,0.8
		c3,0.1,6,0.2,8.9,0.3c0.2,0,0.5-0.1,0.7-0.1C38.7,25.9,35,24.8,30.7,24.4z M18.5,28.1c0.1,0.1,0.1,0.2,0.2,0.3c3.5,0,7,0,10.6,0
		c-0.1-1.2-0.3-2.4-0.4-3.5c0-0.2-0.4-0.4-0.7-0.4c-3.2,0.1-6.2,0.8-8.8,2.9C19.1,27.6,18.8,27.8,18.5,28.1z"/>
	<path class="st1" d="M16.7,33.4c2.2,0,3.9,1.8,3.9,4c0,2.2-1.8,3.9-4,3.9c-2.1,0-3.9-1.8-3.9-4C12.7,35.2,14.5,33.4,16.7,33.4z"/>
	<path class="st1" d="M46.9,33.4c2.2,0,4,1.8,4,4c0,2.2-1.9,4-4,3.9c-2.1,0-3.9-1.8-3.9-4C42.9,35.2,44.7,33.4,46.9,33.4z"/>
</g>
</svg>
