<?xml version="1.0" encoding="utf-8"?>
<!-- Generator: Adobe Illustrator 26.5.2, SVG Export Plug-In . SVG Version: 6.00 Build 0)  -->
<svg version="1.1" id="Layer_1" xmlns="http://www.w3.org/2000/svg" xmlns:xlink="http://www.w3.org/1999/xlink" x="0px" y="0px"
	 viewBox="0 0 100 100" style="enable-background:new 0 0 100 100;" xml:space="preserve">
<style type="text/css">
	.st0{fill:none;}
	.st1{clip-path:url(#XMLID_00000030487836446998982890000008193426800376171680_);}
	.st2{fill:none;stroke:#E0A723;stroke-miterlimit:10;}
	.st3{fill:#F7D320;}
	.st4{fill:#EB8904;}
	.st5{fill:#F5B528;}
	.st6{clip-path:url(#XMLID_00000058566708624702456950000015465043353431619230_);fill:#2E2E2E;}
</style>
<g>
	<g>
		<ellipse id="XMLID_35_" class="st0" cx="46.6" cy="49.3" rx="38.1" ry="44.3"/>
		<g>
			<defs>
				<path id="XMLID_34_" d="M54.6,93.6c20.5,0,37.1-19.8,37.1-44.3S75.1,5,54.6,5h-8v88.6H54.6z"/>
			</defs>
			<use xlink:href="#XMLID_34_"  style="overflow:visible;fill:#F5B528;"/>
			<clipPath id="XMLID_00000056423470889040488230000001684327281358212999_">
				<use xlink:href="#XMLID_34_"  style="overflow:visible;"/>
			</clipPath>
			<g style="clip-path:url(#XMLID_00000056423470889040488230000001684327281358212999_);">
				<line class="st2" x1="-13.7" y1="-5.6" x2="137.8" y2="-5.6"/>
				<line class="st2" x1="-13.7" y1="-2.5" x2="137.8" y2="-2.5"/>
				<line class="st2" x1="-13.7" y1="0.5" x2="137.8" y2="0.5"/>
				<line class="st2" x1="-13.7" y1="3.6" x2="137.8" y2="3.6"/>
				<line class="st2" x1="-13.7" y1="6.6" x2="137.8" y2="6.6"/>
				<line class="st2" x1="-13.7" y1="9.7" x2="137.8" y2="9.7"/>
				<line class="st2" x1="-13.7" y1="12.7" x2="137.8" y2="12.7"/>
				<line class="st2" x1="-13.7" y1="15.8" x2="137.8" y2="15.8"/>
				<line class="st2" x1="-13.7" y1="18.8" x2="137.8" y2="18.8"/>
				<line class="st2" x1="-13.7" y1="21.9" x2="137.8" y2="21.9"/>
				<line class="st2" x1="-13.7" y1="24.9" x2="137.8" y2="24.9"/>
				<line class="st2" x1="-13.7" y1="28" x2="137.8" y2="28"/>
				<line class="st2" x1="-13.7" y1="31" x2="137.8" y2="31"/>
				<line class="st2" x1="-13.7" y1="34.1" x2="137.8" y2="34.1"/>
				<line class="st2" x1="-13.7" y1="37.1" x2="137.8" y2="37.1"/>
				<line class="st2" x1="-13.7" y1="40.2" x2="137.8" y2="40.2"/>
				<line class="st2" x1="-13.7" y1="43.2" x2="137.8" y2="43.2"/>
				<line class="st2" x1="-13.7" y1="46.3" x2="137.8" y2="46.3"/>
				<line class="st2" x1="-13.7" y1="49.3" x2="137.8" y2="49.3"/>
				<line class="st2" x1="-13.7" y1="52.4" x2="137.8" y2="52.4"/>
				<line class="st2" x1="-13.7" y1="55.4" x2="137.8" y2="55.4"/>
				<line class="st2" x1="-13.7" y1="58.5" x2="137.8" y2="58.5"/>
				<line class="st2" x1="-13.7" y1="61.5" x2="137.8" y2="61.5"/>
				<line class="st2" x1="-13.7" y1="64.6" x2="137.8" y2="64.6"/>
				<line class="st2" x1="-13.7" y1="67.6" x2="137.8" y2="67.6"/>
				<line class="st2" x1="-13.7" y1="70.7" x2="137.8" y2="70.7"/>
				<line class="st2" x1="-13.7" y1="73.7" x2="137.8" y2="73.7"/>
				<line class="st2" x1="-13.7" y1="76.8" x2="137.8" y2="76.8"/>
				<line class="st2" x1="-13.7" y1="79.8" x2="137.8" y2="79.8"/>
				<line class="st2" x1="-13.7" y1="82.9" x2="137.8" y2="82.9"/>
				<line class="st2" x1="-13.7" y1="85.9" x2="137.8" y2="85.9"/>
				<line class="st2" x1="-13.7" y1="89" x2="137.8" y2="89"/>
				<line class="st2" x1="-13.7" y1="92" x2="137.8" y2="92"/>
				<line class="st2" x1="-13.7" y1="95.1" x2="137.8" y2="95.1"/>
				<line class="st2" x1="-13.7" y1="98.1" x2="137.8" y2="98.1"/>
				<line class="st2" x1="-13.7" y1="101.2" x2="137.8" y2="101.2"/>
				<line class="st2" x1="-13.7" y1="104.2" x2="137.8" y2="104.2"/>
			</g>
		</g>
		<ellipse class="st3" cx="46.6" cy="49.3" rx="38.1" ry="44.3"/>
		<ellipse class="st4" cx="46.6" cy="49.3" rx="31.9" ry="37.2"/>
		<ellipse class="st5" cx="46.6" cy="49.3" rx="29.5" ry="34.4"/>
		<g>
			<defs>
				<ellipse id="XMLID_33_" cx="46.6" cy="49.3" rx="38.1" ry="44.3"/>
			</defs>
			<clipPath id="XMLID_00000096760623388655509760000003193633466746359742_">
				<use xlink:href="#XMLID_33_"  style="overflow:visible;"/>
			</clipPath>
			<polygon style="clip-path:url(#XMLID_00000096760623388655509760000003193633466746359742_);fill:#2E2E2E;" points="3.9,110.8 
				0.4,106.8 99.2,-8.3 102.7,-4.2 			"/>
			<polygon style="clip-path:url(#XMLID_00000096760623388655509760000003193633466746359742_);fill:#2E2E2E;" points="-0.8,105.4 
				-9.5,95.2 89.3,-19.8 98,-9.6 			"/>
		</g>
	</g>
	<g>
		<path class="st4" d="M49.4,21.2c1.7,0.1,3.3,0.6,4.9,1.2c4.2,1.5,7.6,4.5,10.5,8.2c2.2,2.9,3.8,6.4,4.6,10.2
			c0.3,1.4,0.5,2.8,0.8,4.1c0,1.9,0,3.9,0,5.8c-0.3,1.4-0.5,2.9-0.9,4.3c-2.6,9.9-8.2,16.1-16.7,18.9c-0.6,0.2-0.8,0-0.9-0.6
			c-0.1-0.4-0.2-0.9-0.4-1.3c-0.1-0.4,0-0.6,0.3-0.6c1.2,0.1,2.2-0.7,3.3-1.2c8.6-4.2,13.6-13.6,13-24.4c0-0.4,0-0.9-0.3-1.4
			c-0.3,1.3-0.5,2.5-0.5,3.7c0,0.8-0.4,0.9-0.9,1.1c-0.6,0.2-0.6-0.4-0.7-0.8c-0.5-1.7-1-3.4-1.5-5.3c-0.7,1.5-1.3,2.8-2,4.1
			c-0.2,0.3-0.3,0.6-0.5,0.9c-0.2,0.3-0.4,0.6-0.7,0.5c-0.3,0-0.4-0.4-0.4-0.7c-0.2-1.1-0.5-2.1-0.5-3.2c-0.1-1.8-1.1-2.5-2.3-2.9
			c-1.3-0.5-2.8-0.6-4.3-0.9c0.1,1.1,0.8,1.8,1.2,2.7c0.2,0.5,0.5,1,0.7,1.5c0.4,1.2,0.2,1.9-0.8,2.5c-0.5,0.4-1.1,0.6-1.8,0.7
			c-0.2,0.1-0.5,0-0.5,0.4c0,0.4,0.3,0.4,0.5,0.5c0.1,0.1,0.2,0.1,0.3,0.2c1,0.5,1.1,1,0.6,2c-0.7,1.3-1.5,2.5-2.2,3.6
			c-0.5,0.7-0.6,1.3-0.5,2.2c0.1,0.8,0.3,1.6,0.2,2.5c-0.1,0.6,0,0.6-0.6,1.1c-0.2-1.7-0.5-3.4-1-5c-1.6-4.9-4.8-8-8.8-10
			c-1.3-0.7-2.7-1.2-4.1-1.7c-0.4-0.2-1-0.4-0.6-0.9c1.6-2.1,2.7-4.9,5.4-5.5c0.5-0.1,1,0.3,1.6-0.1c0.4-0.2,0.3,0.4,0.3,0.7
			c0.1,0.4-0.2,0.9,0.2,1.2c0.6,0.4,1.3,0.7,2,1c0,0,0.2-0.2,0.2-0.3c0.1-1.3,0.7-0.6,1.1-0.4c0.6,0.3,1.1,0.6,1.7,0.6
			c1.1-0.1,1.7-1,1.4-2.3c-0.1-0.6-0.6-0.3-0.8-0.3c-0.7,0.1-1.2,0.1-1.6-0.7c-0.4-0.7-1-0.9-1.6-1.3c-1.1-0.6-2.1-1.3-2.9-2.3
			c-0.4-0.5-0.8-0.5-1.3-0.2c-0.9,0.4-1.9,0.7-2.9,1.1c-0.4,0.2-0.8,0.3-1.2,0.1c0.7-2.2,1.5-4.2,3.8-4.9c1-0.3,1.2-1.1,0.6-2.2
			c-0.7-1.3-0.7-1.3,0.4-2.2c0.6-0.4,1.1-0.9,1.9-1.6c-1.7,0.2-3,0.5-4.2,1.1c-6.4,2.8-10.8,7.8-13,15.4c-0.2,0.8-0.5,0.8-1,0.5
			c-1.6-0.8-1.6-0.2-0.9-2.3c2.8-8.3,7.9-13.9,15.3-16.5c1.3-0.5,3.8-0.8,5.2-0.9"/>
		<path class="st4" d="M48.9,21"/>
		<path class="st4" d="M23.7,46.7c0.4-0.4,0.1-1.1,0.3-1.6c0.2-0.6,0.2-0.9,1-0.6c3.7,1.3,7.4,2.4,11.1,3.7c2.2,0.8,4.3,1.8,6.1,3.4
			c2.9,2.5,4.5,5.9,4.9,10c0.3,2.9,0.3,5.8-0.2,8.7c-0.2,0.9,0.5,1.4,0.9,2.1c0.5,1,0.7,2.1,0.9,3.2c-0.9-1-1.6-2.2-2.5-3.1
			c-0.5-0.5-1-0.7-1.8-0.6c-3.4,0.6-6.7,0.6-10-0.5c-5.8-2-8.8-6.9-10.1-13.5c-0.2-1.2-0.2-2.4-0.6-3.6
			C23.7,51.7,23.7,49.2,23.7,46.7z M27.7,50.2c1.7,4.4,3.9,8.2,7.5,10.8c2.5,1.8,5,3.8,7.5,5.7c0.1-0.5-0.1-0.8-0.2-1.1
			c-0.9-1.8-1.9-3.3-3.2-4.8C35.9,56.8,31.3,54.2,27.7,50.2z"/>
	</g>
</g>
</svg>
