<?xml version="1.0" encoding="utf-8"?>
<!-- Generator: Adobe Illustrator 26.5.2, SVG Export Plug-In . SVG Version: 6.00 Build 0)  -->
<svg version="1.1" id="Layer_1" xmlns="http://www.w3.org/2000/svg" xmlns:xlink="http://www.w3.org/1999/xlink" x="0px" y="0px"
	 viewBox="0 0 138.3 100" style="enable-background:new 0 0 138.3 100;" xml:space="preserve">
<style type="text/css">
	.st0{fill:none;}
	.st1{clip-path:url(#XMLID_00000111175682738002706560000007161290932194877584_);}
	.st2{fill:none;stroke:#E0A723;stroke-miterlimit:10;}
	.st3{fill:#F7D320;}
	.st4{fill:#EB8904;}
	.st5{fill:#F5B528;}
	.st6{clip-path:url(#XMLID_00000031917791003021448950000002005523220169360271_);fill:#2E2E2E;}
	.st7{opacity:0.17;}
	.st8{clip-path:url(#XMLID_00000031191164424340780090000001650899245722427321_);}
	.st9{clip-path:url(#XMLID_00000103262215154761397690000016227994487660957622_);fill:#2E2E2E;}
	.st10{clip-path:url(#XMLID_00000129163822056351605120000003320106543761079957_);}
	.st11{clip-path:url(#XMLID_00000013897673223864840840000003179296384211561662_);fill:#2E2E2E;}
</style>
<g>
	<g>
		<ellipse id="XMLID_00000066509258813520782570000001110273160240334238_" class="st0" cx="91.2" cy="49.8" rx="38.1" ry="44.3"/>
		<g>
			<defs>
				<path id="XMLID_00000159470962619336804380000016242294195593424015_" d="M99.2,94.1c20.5,0,37.1-19.8,37.1-44.3
					S119.7,5.5,99.2,5.5h-8v88.6H99.2z"/>
			</defs>
			<use xlink:href="#XMLID_00000159470962619336804380000016242294195593424015_"  style="overflow:visible;fill:#F5B528;"/>
			<clipPath id="XMLID_00000111869944785197894900000018180618081481185467_">
				<use xlink:href="#XMLID_00000159470962619336804380000016242294195593424015_"  style="overflow:visible;"/>
			</clipPath>
			<g style="clip-path:url(#XMLID_00000111869944785197894900000018180618081481185467_);">
				<line class="st2" x1="30.8" y1="-5.1" x2="182.3" y2="-5.1"/>
				<line class="st2" x1="30.8" y1="-2" x2="182.3" y2="-2"/>
				<line class="st2" x1="30.8" y1="1" x2="182.3" y2="1"/>
				<line class="st2" x1="30.8" y1="4.1" x2="182.3" y2="4.1"/>
				<line class="st2" x1="30.8" y1="7.1" x2="182.3" y2="7.1"/>
				<line class="st2" x1="30.8" y1="10.2" x2="182.3" y2="10.2"/>
				<line class="st2" x1="30.8" y1="13.2" x2="182.3" y2="13.2"/>
				<line class="st2" x1="30.8" y1="16.3" x2="182.3" y2="16.3"/>
				<line class="st2" x1="30.8" y1="19.3" x2="182.3" y2="19.3"/>
				<line class="st2" x1="30.8" y1="22.4" x2="182.3" y2="22.4"/>
				<line class="st2" x1="30.8" y1="25.4" x2="182.3" y2="25.4"/>
				<line class="st2" x1="30.8" y1="28.5" x2="182.3" y2="28.5"/>
				<line class="st2" x1="30.8" y1="31.5" x2="182.3" y2="31.5"/>
				<line class="st2" x1="30.8" y1="34.6" x2="182.3" y2="34.6"/>
				<line class="st2" x1="30.8" y1="37.6" x2="182.3" y2="37.6"/>
				<line class="st2" x1="30.8" y1="40.7" x2="182.3" y2="40.7"/>
				<line class="st2" x1="30.8" y1="43.7" x2="182.3" y2="43.7"/>
				<line class="st2" x1="30.8" y1="46.8" x2="182.3" y2="46.8"/>
				<line class="st2" x1="30.8" y1="49.8" x2="182.3" y2="49.8"/>
				<line class="st2" x1="30.8" y1="52.9" x2="182.3" y2="52.9"/>
				<line class="st2" x1="30.8" y1="55.9" x2="182.3" y2="55.9"/>
				<line class="st2" x1="30.8" y1="59" x2="182.3" y2="59"/>
				<line class="st2" x1="30.8" y1="62" x2="182.3" y2="62"/>
				<line class="st2" x1="30.8" y1="65.1" x2="182.3" y2="65.1"/>
				<line class="st2" x1="30.8" y1="68.1" x2="182.3" y2="68.1"/>
				<line class="st2" x1="30.8" y1="71.2" x2="182.3" y2="71.2"/>
				<line class="st2" x1="30.8" y1="74.2" x2="182.3" y2="74.2"/>
				<line class="st2" x1="30.8" y1="77.3" x2="182.3" y2="77.3"/>
				<line class="st2" x1="30.8" y1="80.3" x2="182.3" y2="80.3"/>
				<line class="st2" x1="30.8" y1="83.4" x2="182.3" y2="83.4"/>
				<line class="st2" x1="30.8" y1="86.4" x2="182.3" y2="86.4"/>
				<line class="st2" x1="30.8" y1="89.5" x2="182.3" y2="89.5"/>
				<line class="st2" x1="30.8" y1="92.5" x2="182.3" y2="92.5"/>
				<line class="st2" x1="30.8" y1="95.6" x2="182.3" y2="95.6"/>
				<line class="st2" x1="30.8" y1="98.6" x2="182.3" y2="98.6"/>
				<line class="st2" x1="30.8" y1="101.7" x2="182.3" y2="101.7"/>
				<line class="st2" x1="30.8" y1="104.7" x2="182.3" y2="104.7"/>
			</g>
		</g>
		<ellipse class="st3" cx="91.2" cy="49.8" rx="38.1" ry="44.3"/>
		<ellipse class="st4" cx="91.2" cy="49.8" rx="31.9" ry="37.2"/>
		<ellipse class="st5" cx="91.2" cy="49.8" rx="29.5" ry="34.4"/>
		<g>
			<defs>
				<ellipse id="XMLID_00000035527664037502199780000006939372774756429714_" cx="91.2" cy="49.8" rx="38.1" ry="44.3"/>
			</defs>
			<clipPath id="XMLID_00000034778542560078279790000012909459637699037313_">
				<use xlink:href="#XMLID_00000035527664037502199780000006939372774756429714_"  style="overflow:visible;"/>
			</clipPath>
			<polygon style="clip-path:url(#XMLID_00000034778542560078279790000012909459637699037313_);fill:#2E2E2E;" points="48.5,111.3 
				44.9,107.3 143.8,-7.8 147.3,-3.7 			"/>
			<polygon style="clip-path:url(#XMLID_00000034778542560078279790000012909459637699037313_);fill:#2E2E2E;" points="43.8,105.9 
				35.1,95.8 133.9,-19.3 142.6,-9.1 			"/>
		</g>
	</g>
	<g>
		<path class="st4" d="M94,21.7c1.7,0.1,3.3,0.6,4.9,1.2c4.2,1.5,7.6,4.5,10.5,8.2c2.2,2.9,3.8,6.4,4.6,10.2
			c0.3,1.4,0.5,2.8,0.8,4.1c0,1.9,0,3.9,0,5.8c-0.3,1.4-0.5,2.9-0.9,4.3c-2.6,9.9-8.2,16.1-16.7,18.9c-0.6,0.2-0.8,0-0.9-0.6
			c-0.1-0.4-0.2-0.9-0.4-1.3c-0.1-0.4,0-0.6,0.3-0.6c1.2,0.1,2.2-0.7,3.3-1.2c8.6-4.2,13.6-13.6,13-24.4c0-0.4,0-0.9-0.3-1.4
			c-0.3,1.3-0.5,2.5-0.5,3.7c0,0.8-0.4,0.9-0.9,1.1c-0.6,0.2-0.6-0.4-0.7-0.8c-0.5-1.7-1-3.4-1.5-5.3c-0.7,1.5-1.3,2.8-2,4.1
			c-0.2,0.3-0.3,0.6-0.5,0.9c-0.2,0.3-0.4,0.6-0.7,0.5c-0.3,0-0.4-0.4-0.4-0.7c-0.2-1.1-0.5-2.1-0.5-3.2c-0.1-1.8-1.1-2.5-2.3-2.9
			c-1.3-0.5-2.8-0.6-4.3-0.9c0.1,1.1,0.8,1.8,1.2,2.7c0.2,0.5,0.5,1,0.7,1.5c0.4,1.2,0.2,1.9-0.8,2.5c-0.5,0.4-1.1,0.6-1.8,0.7
			c-0.2,0.1-0.5,0-0.5,0.4c0,0.4,0.3,0.4,0.5,0.5c0.1,0.1,0.2,0.1,0.3,0.2c1,0.5,1.1,1,0.6,2c-0.7,1.3-1.5,2.5-2.2,3.6
			c-0.5,0.7-0.6,1.3-0.5,2.2c0.1,0.8,0.3,1.6,0.2,2.5c-0.1,0.6,0,0.6-0.6,1.1c-0.2-1.7-0.5-3.4-1-5c-1.6-4.9-4.8-8-8.8-10
			c-1.3-0.7-2.7-1.2-4.1-1.7c-0.4-0.2-1-0.4-0.6-0.9c1.6-2.1,2.7-4.9,5.4-5.5c0.5-0.1,1,0.3,1.6-0.1c0.4-0.2,0.3,0.4,0.3,0.7
			c0.1,0.4-0.2,0.9,0.2,1.2c0.6,0.4,1.3,0.7,2,1c0,0,0.2-0.2,0.2-0.3c0.1-1.3,0.7-0.6,1.1-0.4c0.6,0.3,1.1,0.6,1.7,0.6
			c1.1-0.1,1.7-1,1.4-2.3c-0.1-0.6-0.6-0.3-0.8-0.3c-0.7,0.1-1.2,0.1-1.6-0.7c-0.4-0.7-1-0.9-1.6-1.3c-1.1-0.6-2.1-1.3-2.9-2.3
			c-0.4-0.5-0.8-0.5-1.3-0.2c-0.9,0.4-1.9,0.7-2.9,1.1c-0.4,0.2-0.8,0.3-1.2,0.1C83,33,83.8,31,86,30.4c1-0.3,1.2-1.1,0.6-2.2
			c-0.7-1.3-0.7-1.3,0.4-2.2c0.6-0.4,1.1-0.9,1.9-1.6c-1.7,0.2-3,0.5-4.2,1.1c-6.4,2.8-10.8,7.8-13,15.4c-0.2,0.8-0.5,0.8-1,0.5
			c-1.6-0.8-1.6-0.2-0.9-2.3c2.8-8.3,7.9-13.9,15.3-16.5c1.3-0.5,3.8-0.8,5.2-0.9"/>
		<path class="st4" d="M93.5,21.5"/>
		<path class="st4" d="M68.2,47.2c0.4-0.4,0.1-1.1,0.3-1.6c0.2-0.6,0.2-0.9,1-0.6c3.7,1.3,7.4,2.4,11.1,3.7c2.2,0.8,4.3,1.8,6.1,3.4
			c2.9,2.5,4.5,5.9,4.9,10c0.3,2.9,0.3,5.8-0.2,8.7c-0.2,0.9,0.5,1.4,0.9,2.1c0.5,1,0.7,2.1,0.9,3.2c-0.9-1-1.6-2.2-2.5-3.1
			c-0.5-0.5-1-0.7-1.8-0.6c-3.4,0.6-6.7,0.6-10-0.5c-5.8-2-8.8-6.9-10.1-13.5c-0.2-1.2-0.2-2.4-0.6-3.6
			C68.2,52.2,68.2,49.7,68.2,47.2z M72.3,50.7c1.7,4.4,3.9,8.2,7.5,10.8c2.5,1.8,5,3.8,7.5,5.7c0.1-0.5-0.1-0.8-0.2-1.1
			c-0.9-1.8-1.9-3.3-3.2-4.8C80.4,57.3,75.9,54.7,72.3,50.7z"/>
	</g>
</g>
<g class="st7">
	<image style="overflow:visible;" width="154" height="158" xlink:href="5F82A230.png"  transform="matrix(1 0 0 1 2.3043 -29)">
	</image>
</g>
<g>
	<g>
		<ellipse id="XMLID_00000023244666272566883960000015001514955224510342_" class="st0" cx="66.4" cy="50.5" rx="38.1" ry="44.3"/>
		<g>
			<defs>
				<path id="XMLID_00000122699697465938508070000009511371042213009825_" d="M74.4,94.8c20.5,0,37.1-19.8,37.1-44.3
					S94.9,6.2,74.4,6.2h-8v88.6H74.4z"/>
			</defs>
			<use xlink:href="#XMLID_00000122699697465938508070000009511371042213009825_"  style="overflow:visible;fill:#F5B528;"/>
			<clipPath id="XMLID_00000123437326273948400030000018230082587606263476_">
				<use xlink:href="#XMLID_00000122699697465938508070000009511371042213009825_"  style="overflow:visible;"/>
			</clipPath>
			<g style="clip-path:url(#XMLID_00000123437326273948400030000018230082587606263476_);">
				<line class="st2" x1="6" y1="-4.4" x2="157.5" y2="-4.4"/>
				<line class="st2" x1="6" y1="-1.4" x2="157.5" y2="-1.4"/>
				<line class="st2" x1="6" y1="1.7" x2="157.5" y2="1.7"/>
				<line class="st2" x1="6" y1="4.7" x2="157.5" y2="4.7"/>
				<line class="st2" x1="6" y1="7.8" x2="157.5" y2="7.8"/>
				<line class="st2" x1="6" y1="10.8" x2="157.5" y2="10.8"/>
				<line class="st2" x1="6" y1="13.9" x2="157.5" y2="13.9"/>
				<line class="st2" x1="6" y1="16.9" x2="157.5" y2="16.9"/>
				<line class="st2" x1="6" y1="20" x2="157.5" y2="20"/>
				<line class="st2" x1="6" y1="23" x2="157.5" y2="23"/>
				<line class="st2" x1="6" y1="26.1" x2="157.5" y2="26.1"/>
				<line class="st2" x1="6" y1="29.1" x2="157.5" y2="29.1"/>
				<line class="st2" x1="6" y1="32.2" x2="157.5" y2="32.2"/>
				<line class="st2" x1="6" y1="35.2" x2="157.5" y2="35.2"/>
				<line class="st2" x1="6" y1="38.3" x2="157.5" y2="38.3"/>
				<line class="st2" x1="6" y1="41.3" x2="157.5" y2="41.3"/>
				<line class="st2" x1="6" y1="44.4" x2="157.5" y2="44.4"/>
				<line class="st2" x1="6" y1="47.4" x2="157.5" y2="47.4"/>
				<line class="st2" x1="6" y1="50.5" x2="157.5" y2="50.5"/>
				<line class="st2" x1="6" y1="53.5" x2="157.5" y2="53.5"/>
				<line class="st2" x1="6" y1="56.6" x2="157.5" y2="56.6"/>
				<line class="st2" x1="6" y1="59.6" x2="157.5" y2="59.6"/>
				<line class="st2" x1="6" y1="62.7" x2="157.5" y2="62.7"/>
				<line class="st2" x1="6" y1="65.7" x2="157.5" y2="65.7"/>
				<line class="st2" x1="6" y1="68.8" x2="157.5" y2="68.8"/>
				<line class="st2" x1="6" y1="71.8" x2="157.5" y2="71.8"/>
				<line class="st2" x1="6" y1="74.9" x2="157.5" y2="74.9"/>
				<line class="st2" x1="6" y1="77.9" x2="157.5" y2="77.9"/>
				<line class="st2" x1="6" y1="81" x2="157.5" y2="81"/>
				<line class="st2" x1="6" y1="84" x2="157.5" y2="84"/>
				<line class="st2" x1="6" y1="87.1" x2="157.5" y2="87.1"/>
				<line class="st2" x1="6" y1="90.1" x2="157.5" y2="90.1"/>
				<line class="st2" x1="6" y1="93.2" x2="157.5" y2="93.2"/>
				<line class="st2" x1="6" y1="96.2" x2="157.5" y2="96.2"/>
				<line class="st2" x1="6" y1="99.3" x2="157.5" y2="99.3"/>
				<line class="st2" x1="6" y1="102.3" x2="157.5" y2="102.3"/>
				<line class="st2" x1="6" y1="105.4" x2="157.5" y2="105.4"/>
			</g>
		</g>
		<ellipse class="st3" cx="66.4" cy="50.5" rx="38.1" ry="44.3"/>
		<ellipse class="st4" cx="66.4" cy="50.5" rx="31.9" ry="37.2"/>
		<ellipse class="st5" cx="66.4" cy="50.5" rx="29.5" ry="34.4"/>
		<g>
			<defs>
				<ellipse id="XMLID_00000088117397878368099260000010526649538405136314_" cx="66.4" cy="50.5" rx="38.1" ry="44.3"/>
			</defs>
			<clipPath id="XMLID_00000111186106520023381400000002881557199673634735_">
				<use xlink:href="#XMLID_00000088117397878368099260000010526649538405136314_"  style="overflow:visible;"/>
			</clipPath>
			<polygon style="clip-path:url(#XMLID_00000111186106520023381400000002881557199673634735_);fill:#2E2E2E;" points="23.6,112 
				20.1,107.9 119,-7.1 122.5,-3 			"/>
			<polygon style="clip-path:url(#XMLID_00000111186106520023381400000002881557199673634735_);fill:#2E2E2E;" points="18.9,106.5 
				10.2,96.4 109.1,-18.6 117.8,-8.5 			"/>
		</g>
	</g>
	<g>
		<path class="st4" d="M69.2,22.4c1.7,0.1,3.3,0.6,4.9,1.2c4.2,1.5,7.6,4.5,10.5,8.2c2.2,2.9,3.8,6.4,4.6,10.2
			c0.3,1.4,0.5,2.8,0.8,4.1c0,1.9,0,3.9,0,5.8c-0.3,1.4-0.5,2.9-0.9,4.3c-2.6,9.9-8.2,16.1-16.7,18.9c-0.6,0.2-0.8,0-0.9-0.6
			c-0.1-0.4-0.2-0.9-0.4-1.3c-0.1-0.4,0-0.6,0.3-0.6c1.2,0.1,2.2-0.7,3.3-1.2c8.6-4.2,13.6-13.6,13-24.4c0-0.4,0-0.9-0.3-1.4
			c-0.3,1.3-0.5,2.5-0.5,3.7c0,0.8-0.4,0.9-0.9,1.1c-0.6,0.2-0.6-0.4-0.7-0.8c-0.5-1.7-1-3.4-1.5-5.3c-0.7,1.5-1.3,2.8-2,4.1
			c-0.2,0.3-0.3,0.6-0.5,0.9C81.2,49.7,81,50,80.7,50c-0.3,0-0.4-0.4-0.4-0.7c-0.2-1.1-0.5-2.1-0.5-3.2c-0.1-1.8-1.1-2.5-2.3-2.9
			c-1.3-0.5-2.8-0.6-4.3-0.9c0.1,1.1,0.8,1.8,1.2,2.7c0.2,0.5,0.5,1,0.7,1.5c0.4,1.2,0.2,1.9-0.8,2.5c-0.5,0.4-1.1,0.6-1.8,0.7
			c-0.2,0.1-0.5,0-0.5,0.4c0,0.4,0.3,0.4,0.5,0.5c0.1,0.1,0.2,0.1,0.3,0.2c1,0.5,1.1,1,0.6,2c-0.7,1.3-1.5,2.5-2.2,3.6
			c-0.5,0.7-0.6,1.3-0.5,2.2c0.1,0.8,0.3,1.6,0.2,2.5c-0.1,0.6,0,0.6-0.6,1.1c-0.2-1.7-0.5-3.4-1-5c-1.6-4.9-4.8-8-8.8-10
			c-1.3-0.7-2.7-1.2-4.1-1.7c-0.4-0.2-1-0.4-0.6-0.9c1.6-2.1,2.7-4.9,5.4-5.5c0.5-0.1,1,0.3,1.6-0.1c0.4-0.2,0.3,0.4,0.3,0.7
			c0.1,0.4-0.2,0.9,0.2,1.2c0.6,0.4,1.3,0.7,2,1c0,0,0.2-0.2,0.2-0.3c0.1-1.3,0.7-0.6,1.1-0.4c0.6,0.3,1.1,0.6,1.7,0.6
			c1.1-0.1,1.7-1,1.4-2.3c-0.1-0.6-0.6-0.3-0.8-0.3c-0.7,0.1-1.2,0.1-1.6-0.7c-0.4-0.7-1-0.9-1.6-1.3c-1.1-0.6-2.1-1.3-2.9-2.3
			c-0.4-0.5-0.8-0.5-1.3-0.2c-0.9,0.4-1.9,0.7-2.9,1.1c-0.4,0.2-0.8,0.3-1.2,0.1c0.7-2.2,1.5-4.2,3.8-4.9c1-0.3,1.2-1.1,0.6-2.2
			c-0.7-1.3-0.7-1.3,0.4-2.2c0.6-0.4,1.1-0.9,1.9-1.6c-1.7,0.2-3,0.5-4.2,1.1c-6.4,2.8-10.8,7.8-13,15.4c-0.2,0.8-0.5,0.8-1,0.5
			c-1.6-0.8-1.6-0.2-0.9-2.3c2.8-8.3,7.9-13.9,15.3-16.5c1.3-0.5,3.8-0.8,5.2-0.9"/>
		<path class="st4" d="M68.7,22.1"/>
		<path class="st4" d="M43.4,47.8c0.4-0.4,0.1-1.1,0.3-1.6c0.2-0.6,0.2-0.9,1-0.6c3.7,1.3,7.4,2.4,11.1,3.7c2.2,0.8,4.3,1.8,6.1,3.4
			c2.9,2.5,4.5,5.9,4.9,10c0.3,2.9,0.3,5.8-0.2,8.7c-0.2,0.9,0.5,1.4,0.9,2.1c0.5,1,0.7,2.1,0.9,3.2c-0.9-1-1.6-2.2-2.5-3.1
			c-0.5-0.5-1-0.7-1.8-0.6c-3.4,0.6-6.7,0.6-10-0.5c-5.8-2-8.8-6.9-10.1-13.5c-0.2-1.2-0.2-2.4-0.6-3.6
			C43.4,52.8,43.4,50.3,43.4,47.8z M47.5,51.3c1.7,4.4,3.9,8.2,7.5,10.8c2.5,1.8,5,3.8,7.5,5.7c0.1-0.5-0.1-0.8-0.2-1.1
			c-0.9-1.8-1.9-3.3-3.2-4.8C55.6,57.9,51.1,55.4,47.5,51.3z"/>
	</g>
</g>
<g class="st7">
	<image style="overflow:visible;" width="150" height="156" xlink:href="5F82A237.png"  transform="matrix(1 0 0 1 -14.6957 -26)">
	</image>
</g>
<g>
	<g>
		<ellipse id="XMLID_35_" class="st0" cx="40" cy="50.5" rx="38.1" ry="44.3"/>
		<g>
			<defs>
				<path id="XMLID_34_" d="M48.1,94.8c20.5,0,37.1-19.8,37.1-44.3S68.6,6.2,48.1,6.2h-8v88.6H48.1z"/>
			</defs>
			<use xlink:href="#XMLID_34_"  style="overflow:visible;fill:#F5B528;"/>
			<clipPath id="XMLID_00000173139589241806091100000004589001108461054122_">
				<use xlink:href="#XMLID_34_"  style="overflow:visible;"/>
			</clipPath>
			<g style="clip-path:url(#XMLID_00000173139589241806091100000004589001108461054122_);">
				<line class="st2" x1="-20.3" y1="-4.4" x2="131.2" y2="-4.4"/>
				<line class="st2" x1="-20.3" y1="-1.4" x2="131.2" y2="-1.4"/>
				<line class="st2" x1="-20.3" y1="1.7" x2="131.2" y2="1.7"/>
				<line class="st2" x1="-20.3" y1="4.7" x2="131.2" y2="4.7"/>
				<line class="st2" x1="-20.3" y1="7.8" x2="131.2" y2="7.8"/>
				<line class="st2" x1="-20.3" y1="10.8" x2="131.2" y2="10.8"/>
				<line class="st2" x1="-20.3" y1="13.9" x2="131.2" y2="13.9"/>
				<line class="st2" x1="-20.3" y1="16.9" x2="131.2" y2="16.9"/>
				<line class="st2" x1="-20.3" y1="20" x2="131.2" y2="20"/>
				<line class="st2" x1="-20.3" y1="23" x2="131.2" y2="23"/>
				<line class="st2" x1="-20.3" y1="26.1" x2="131.2" y2="26.1"/>
				<line class="st2" x1="-20.3" y1="29.1" x2="131.2" y2="29.1"/>
				<line class="st2" x1="-20.3" y1="32.2" x2="131.2" y2="32.2"/>
				<line class="st2" x1="-20.3" y1="35.2" x2="131.2" y2="35.2"/>
				<line class="st2" x1="-20.3" y1="38.3" x2="131.2" y2="38.3"/>
				<line class="st2" x1="-20.3" y1="41.3" x2="131.2" y2="41.3"/>
				<line class="st2" x1="-20.3" y1="44.4" x2="131.2" y2="44.4"/>
				<line class="st2" x1="-20.3" y1="47.4" x2="131.2" y2="47.4"/>
				<line class="st2" x1="-20.3" y1="50.5" x2="131.2" y2="50.5"/>
				<line class="st2" x1="-20.3" y1="53.5" x2="131.2" y2="53.5"/>
				<line class="st2" x1="-20.3" y1="56.6" x2="131.2" y2="56.6"/>
				<line class="st2" x1="-20.3" y1="59.6" x2="131.2" y2="59.6"/>
				<line class="st2" x1="-20.3" y1="62.7" x2="131.2" y2="62.7"/>
				<line class="st2" x1="-20.3" y1="65.7" x2="131.2" y2="65.7"/>
				<line class="st2" x1="-20.3" y1="68.8" x2="131.2" y2="68.8"/>
				<line class="st2" x1="-20.3" y1="71.8" x2="131.2" y2="71.8"/>
				<line class="st2" x1="-20.3" y1="74.9" x2="131.2" y2="74.9"/>
				<line class="st2" x1="-20.3" y1="77.9" x2="131.2" y2="77.9"/>
				<line class="st2" x1="-20.3" y1="81" x2="131.2" y2="81"/>
				<line class="st2" x1="-20.3" y1="84" x2="131.2" y2="84"/>
				<line class="st2" x1="-20.3" y1="87.1" x2="131.2" y2="87.1"/>
				<line class="st2" x1="-20.3" y1="90.1" x2="131.2" y2="90.1"/>
				<line class="st2" x1="-20.3" y1="93.2" x2="131.2" y2="93.2"/>
				<line class="st2" x1="-20.3" y1="96.2" x2="131.2" y2="96.2"/>
				<line class="st2" x1="-20.3" y1="99.3" x2="131.2" y2="99.3"/>
				<line class="st2" x1="-20.3" y1="102.3" x2="131.2" y2="102.3"/>
				<line class="st2" x1="-20.3" y1="105.4" x2="131.2" y2="105.4"/>
			</g>
		</g>
		<ellipse class="st3" cx="40" cy="50.5" rx="38.1" ry="44.3"/>
		<ellipse class="st4" cx="40" cy="50.5" rx="31.9" ry="37.2"/>
		<ellipse class="st5" cx="40" cy="50.5" rx="29.5" ry="34.4"/>
		<g>
			<defs>
				<ellipse id="XMLID_33_" cx="40" cy="50.5" rx="38.1" ry="44.3"/>
			</defs>
			<clipPath id="XMLID_00000155104614534263344650000016731355916316223390_">
				<use xlink:href="#XMLID_33_"  style="overflow:visible;"/>
			</clipPath>
			<polygon style="clip-path:url(#XMLID_00000155104614534263344650000016731355916316223390_);fill:#2E2E2E;" points="-2.7,112 
				-6.2,107.9 92.7,-7.1 96.2,-3 			"/>
			<polygon style="clip-path:url(#XMLID_00000155104614534263344650000016731355916316223390_);fill:#2E2E2E;" points="-7.4,106.5 
				-16.1,96.4 82.8,-18.6 91.5,-8.5 			"/>
		</g>
	</g>
	<g>
		<path class="st4" d="M42.9,22.4c1.7,0.1,3.3,0.6,4.9,1.2c4.2,1.5,7.6,4.5,10.5,8.2c2.2,2.9,3.8,6.4,4.6,10.2
			c0.3,1.4,0.5,2.8,0.8,4.1c0,1.9,0,3.9,0,5.8c-0.3,1.4-0.5,2.9-0.9,4.3c-2.6,9.9-8.2,16.1-16.7,18.9c-0.6,0.2-0.8,0-0.9-0.6
			c-0.1-0.4-0.2-0.9-0.4-1.3c-0.1-0.4,0-0.6,0.3-0.6c1.2,0.1,2.2-0.7,3.3-1.2C57,67.3,62,57.8,61.3,47c0-0.4,0-0.9-0.3-1.4
			c-0.3,1.3-0.5,2.5-0.5,3.7c0,0.8-0.4,0.9-0.9,1.1C59,50.7,59.1,50,59,49.7c-0.5-1.7-1-3.4-1.5-5.3c-0.7,1.5-1.3,2.8-2,4.1
			c-0.2,0.3-0.3,0.6-0.5,0.9c-0.2,0.3-0.4,0.6-0.7,0.5c-0.3,0-0.4-0.4-0.4-0.7c-0.2-1.1-0.5-2.1-0.5-3.2c-0.1-1.8-1.1-2.5-2.3-2.9
			c-1.3-0.5-2.8-0.6-4.3-0.9c0.1,1.1,0.8,1.8,1.2,2.7c0.2,0.5,0.5,1,0.7,1.5c0.4,1.2,0.2,1.9-0.8,2.5c-0.5,0.4-1.1,0.6-1.8,0.7
			c-0.2,0.1-0.5,0-0.5,0.4c0,0.4,0.3,0.4,0.5,0.5c0.1,0.1,0.2,0.1,0.3,0.2c1,0.5,1.1,1,0.6,2c-0.7,1.3-1.5,2.5-2.2,3.6
			c-0.5,0.7-0.6,1.3-0.5,2.2c0.1,0.8,0.3,1.6,0.2,2.5c-0.1,0.6,0,0.6-0.6,1.1c-0.2-1.7-0.5-3.4-1-5c-1.6-4.9-4.8-8-8.8-10
			c-1.3-0.7-2.7-1.2-4.1-1.7c-0.4-0.2-1-0.4-0.6-0.9c1.6-2.1,2.7-4.9,5.4-5.5c0.5-0.1,1,0.3,1.6-0.1c0.4-0.2,0.3,0.4,0.3,0.7
			c0.1,0.4-0.2,0.9,0.2,1.2c0.6,0.4,1.3,0.7,2,1c0,0,0.2-0.2,0.2-0.3c0.1-1.3,0.7-0.6,1.1-0.4c0.6,0.3,1.1,0.6,1.7,0.6
			c1.1-0.1,1.7-1,1.4-2.3c-0.1-0.6-0.6-0.3-0.8-0.3c-0.7,0.1-1.2,0.1-1.6-0.7c-0.4-0.7-1-0.9-1.6-1.3c-1.1-0.6-2.1-1.3-2.9-2.3
			c-0.4-0.5-0.8-0.5-1.3-0.2c-0.9,0.4-1.9,0.7-2.9,1.1c-0.4,0.2-0.8,0.3-1.2,0.1c0.7-2.2,1.5-4.2,3.8-4.9c1-0.3,1.2-1.1,0.6-2.2
			c-0.7-1.3-0.7-1.3,0.4-2.2c0.6-0.4,1.1-0.9,1.9-1.6c-1.7,0.2-3,0.5-4.2,1.1c-6.4,2.8-10.8,7.8-13,15.4c-0.2,0.8-0.5,0.8-1,0.5
			c-1.6-0.8-1.6-0.2-0.9-2.3c2.8-8.3,7.9-13.9,15.3-16.5c1.3-0.5,3.8-0.8,5.2-0.9"/>
		<path class="st4" d="M42.3,22.1"/>
		<path class="st4" d="M17.1,47.8c0.4-0.4,0.1-1.1,0.3-1.6c0.2-0.6,0.2-0.9,1-0.6c3.7,1.3,7.4,2.4,11.1,3.7c2.2,0.8,4.3,1.8,6.1,3.4
			c2.9,2.5,4.5,5.9,4.9,10c0.3,2.9,0.3,5.8-0.2,8.7c-0.2,0.9,0.5,1.4,0.9,2.1c0.5,1,0.7,2.1,0.9,3.2c-0.9-1-1.6-2.2-2.5-3.1
			c-0.5-0.5-1-0.7-1.8-0.6c-3.4,0.6-6.7,0.6-10-0.5c-5.8-2-8.8-6.9-10.1-13.5c-0.2-1.2-0.2-2.4-0.6-3.6
			C17.1,52.8,17.1,50.3,17.1,47.8z M21.2,51.3c1.7,4.4,3.9,8.2,7.5,10.8c2.5,1.8,5,3.8,7.5,5.7c0.1-0.5-0.1-0.8-0.2-1.1
			c-0.9-1.8-1.9-3.3-3.2-4.8C29.3,57.9,24.7,55.4,21.2,51.3z"/>
	</g>
</g>
</svg>
