<?xml version="1.0" encoding="utf-8"?>
<!-- Generator: Adobe Illustrator 26.5.2, SVG Export Plug-In . SVG Version: 6.00 Build 0)  -->
<svg version="1.1" id="Layer_1" xmlns="http://www.w3.org/2000/svg" xmlns:xlink="http://www.w3.org/1999/xlink" x="0px" y="0px"
	 viewBox="0 0 64 64" style="enable-background:new 0 0 64 64;" xml:space="preserve">
<style type="text/css">
	.st0{fill:#2E5CCE;}
	.st1{fill:#FFFFFF;}
</style>
<circle class="st0" cx="32" cy="32" r="32"/>
<path class="st1" d="M52.8,33.3c-0.3,1.4-0.4,2.7-0.8,4c-2.3,7.5-7.4,12-15,14.1c-0.2-0.6-0.4-1.2-0.6-1.8c12-2.7,15.5-14.4,14-20.2
	c-0.1,0.8-0.3,1.6-0.3,2.3c0,0.8-0.3,1.1-1.2,1.2c-0.5-1.4-1-2.9-1.5-4.5c-1.1,1.3-1.4,3.1-2.9,4.3c-0.2-1.2-0.5-2.2-0.6-3.2
	c-0.1-1.3-0.9-1.8-1.8-2.1c-1.2-0.4-2.5-0.5-4-0.8c0.5,0.8,0.8,1.4,1.2,2c1.3,2.1,1,2.8-1.3,3.5c-0.2,0.1-0.5,0.1-0.9,0.3
	c0.4,0.3,0.6,0.5,1,0.7c0.8,0.3,0.8,0.8,0.4,1.4c-0.4,0.7-0.8,1.4-1.4,1.9c-1.1,1.1-1.2,2.4-0.9,3.8c0.1,0.4-0.1,0.9-0.1,1.4
	c-0.1,0-0.2,0-0.4,0c-0.1-0.4-0.1-0.7-0.2-1.1c-0.9-4.8-3.6-8-8-9.9c-1.5-0.6-3-1.2-4.5-1.8c1.1-2.1,3.6-5.1,6.3-4.5
	c0.1,0.5,0,1.1,0.3,1.4c0.5,0.4,1.2,0.6,1.9,0.9c0.1-0.3,0.2-0.6,0.3-0.9c0.4,0.2,0.7,0.3,1.1,0.5c1.6,0.7,2.5,0.2,2.4-1.6
	c0,0-0.1-0.1-0.1-0.1c-0.9,0.2-1.6-0.2-2.3-0.8c-1.2-1-2.5-1.7-3.8-2.5c-0.2-0.1-0.5,0-0.7,0c-0.9,0.3-1.8,0.6-2.7,0.9
	c-0.3,0.1-0.6,0.1-1,0.2c0.4-1,0.6-1.9,1.2-2.6c0.4-0.5,1.2-0.6,1.8-0.9C29,18,29,18,28.2,16.6c-0.3-0.5-0.3-0.9,0.3-1.2
	c0.6-0.3,1.1-0.8,1.7-1.2c-2-0.3-6.7,1.7-9.4,4c-2.7,2.3-4.5,5.2-5.6,8.6c-0.2-0.1-0.4-0.1-0.6-0.2c-0.4-0.1-0.7-0.3-1.2-0.5
	c0.3-0.7,0.5-1.4,0.8-2.1c3.1-6.7,8.3-10.7,15.5-11.9c0.6-0.1,1.2-0.2,1.9-0.2c0.7,0,1.4,0,2.2,0c0.2,0.1,0.5,0.1,0.7,0.2
	c8,0.6,15,6.2,17.3,14c0.4,1.5,0.6,3,0.9,4.5C52.8,31.4,52.8,32.3,52.8,33.3z"/>
<path class="st1" d="M12.5,32.8c0.1-1,0.2-2,0.4-3c0-0.2,0.1-0.3,0.1-0.6c4.2,1.3,8.5,2.4,12.6,4c4.4,1.7,6.9,5,7.1,9.8
	c0.1,1.8-0.1,3.6-0.2,5.5c0,0.4,0.1,0.7,0.3,1.1c0.4,0.9,0.9,1.8,1.4,2.7c0.1-0.1,0.1-0.2,0.2-0.3c-0.9-0.6-1.8-1.2-2.6-1.9
	c-0.5-0.4-0.9-0.4-1.5-0.4c-3.4,0.5-6.7,0.5-9.9-0.8c-4.3-1.8-6.5-5.3-7.3-9.7c-0.3-1.4-0.4-2.8-0.6-4.2
	C12.5,34.2,12.5,33.5,12.5,32.8z M15.8,33.2c0,0.1,0,0.2,0.1,0.3c1.2,2.4,2.4,4.8,4.6,6.5c2.9,2.2,5.9,4.1,8.8,6.2
	c0.1-0.1,0.1-0.1,0.2-0.2c-0.1-0.3-0.2-0.6-0.3-0.8c-0.9-1.3-1.7-2.7-2.9-3.7C22.8,38.6,19.3,36,15.8,33.2z"/>
</svg>
