<?xml version="1.0" encoding="UTF-8"?><svg id="Layer_1" xmlns="http://www.w3.org/2000/svg" viewBox="0 0 64 64"><circle cx="32" cy="32" r="32" style="fill:#fc343b;"/><path d="M21.01,21.96c1.33,1.73,1.27,3.57,1.47,5.68,2.11-2.68,3.74-5.31,5.05-8.17,1.32-2.88,2.02-5.87,1.79-9.21,5.86,2.91,8.26,8.11,9.93,13.99,1.45-1.8,1.5-3.6,1.04-5.48-.06-.27-.32-.57-.06-.76,.28-.2,.5,.11,.69,.32,3.78,4.19,6.27,8.97,6.58,14.69,.28,5.3-2.18,9.38-6.03,12.76-1.08,.95-2.24,1.79-3.75,2.68,1.72-4.06,2.01-8.02,1.04-12.03-.97-4.01-2.85-7.5-6.28-10.23,.03,3.72-.59,7.09-2.91,10.29,0-1.96,0-3.64-1.04-5.26-.24,.74-.45,1.35-.64,1.97-.47,1.52-1.16,2.94-2.04,4.26-2.09,3.13-2.45,6.43-1.06,9.93,.11,.28,.19,.58,.37,1.11-4.13-2.67-7.82-5.36-8.57-10.45-.41-2.77,.29-5.37,1.34-7.9,.8-1.94,1.86-3.78,2.48-5.8,.21-.7,.36-1.42,.6-2.38Z" style="fill:#fefefe;"/></svg>