<?xml version="1.0" encoding="utf-8"?>
<!-- Generator: Adobe Illustrator 26.5.2, SVG Export Plug-In . SVG Version: 6.00 Build 0)  -->
<svg version="1.1" id="Layer_1" xmlns="http://www.w3.org/2000/svg" xmlns:xlink="http://www.w3.org/1999/xlink" x="0px" y="0px"
	 viewBox="0 0 64 64" style="enable-background:new 0 0 64 64;" xml:space="preserve">
<style type="text/css">
	.st0{fill:#2E5CCE;}
	.st1{fill:#FFFFFF;}
</style>
<circle class="st0" cx="32" cy="32" r="32"/>
<path class="st1" d="M25.4,19.6c0.6,0.3,0.7,0.8,0.4,1.1c-0.1,0.2-0.4,0.3-0.6,0.3c-0.3,0-0.7,0-1,0c0,1.8,0,3.5,0,5.3
	c1.8,0,3.5,0,5.3,0c0-0.3,0-0.6,0-0.9c0-0.5,0.3-0.9,0.7-0.9c0.4,0,0.7,0.3,0.7,0.8c0,0.8,0,1.6,0,2.4c0,3.2,0,6.3,0,9.5
	c0,0.1,0,0.3,0,0.4c-0.1,0.4-0.3,0.7-0.7,0.7c-0.4,0-0.7-0.3-0.7-0.7c0-0.4,0-0.7,0-1.1c-0.2,0-0.3,0-0.5,0c-3.3,0-6.6,0-9.8,0
	c-2.6,0-4.6-1.7-5.1-4.3c-0.1-0.4-0.1-0.8-0.1-1.1c0-3.2,0-6.4,0-9.6c0-0.2,0-0.3,0-0.5c-0.3,0-0.6,0-0.9,0c-0.5,0-0.8-0.2-0.9-0.5
	c-0.1-0.4,0.1-0.7,0.5-0.9C16.9,19.6,21.1,19.6,25.4,19.6z M29.4,35.1c0-2.4,0-4.8,0-7.3c-0.2,0-0.3,0-0.5,0c-1.8,0-3.5,0-5.3,0
	c-0.7,0-1-0.2-1-1c0-1.8,0-3.6,0-5.3c0-0.1,0-0.3,0-0.4c-2.4,0-4.8,0-7.3,0c0,0.1,0,0.1,0,0.2c0,3.4,0,6.8,0,10.2
	c0,0.5,0.1,1.1,0.4,1.6c0.7,1.4,1.9,2.1,3.5,2.1c3.2,0,6.5,0,9.7,0C29.1,35.1,29.2,35.1,29.4,35.1z"/>
<path class="st1" d="M39.9,41.9c0-1.8,0-3.5,0-5.3c-1.8,0-3.5,0-5.3,0c0,0.3,0,0.5,0,0.8c0,0.7-0.2,1-0.7,1c-0.5,0-0.7-0.3-0.7-1
	c0-0.4,0-0.8,0-1.2c0-3.5,0-7,0-10.4c0-0.2,0-0.4,0-0.5c0.1-0.4,0.3-0.5,0.7-0.6c0.4,0,0.7,0.2,0.7,0.6c0.1,0.4,0.1,0.8,0.1,1.3
	c0.2,0,0.3,0,0.5,0c3.3,0,6.6,0,9.8,0c2.6,0,4.6,1.7,5.1,4.3c0.1,0.4,0.1,0.8,0.1,1.1c0,3.2,0,6.4,0,9.5c0,0.2,0,0.3,0,0.5
	c0.3,0,0.7,0,1,0c0.6,0,0.9,0.3,0.9,0.7c0,0.4-0.3,0.7-0.9,0.7c-4,0-8,0-12.1,0c-0.5,0-0.8-0.2-0.8-0.6c-0.1-0.3,0-0.6,0.3-0.8
	c0.1-0.1,0.3-0.1,0.5-0.1C39.2,41.9,39.5,41.9,39.9,41.9z M48.6,41.8c0-0.2,0-0.3,0-0.4c0-3.2,0-6.5,0-9.7c0-2.4-1.5-3.9-3.9-3.9
	c-3.2,0-6.5,0-9.7,0c-0.1,0-0.3,0-0.4,0c0,2.5,0,4.8,0,7.3c0.2,0,0.3,0,0.5,0c1.7,0,3.4,0,5.1,0c1,0,1.1,0.2,1.1,1.1
	c0,1.7,0,3.5,0,5.2c0,0.1,0,0.3,0,0.5C43.8,41.8,46.2,41.8,48.6,41.8z"/>
</svg>
