<?xml version="1.0" encoding="utf-8"?>
<!-- Generator: Adobe Illustrator 26.5.2, SVG Export Plug-In . SVG Version: 6.00 Build 0)  -->
<svg version="1.1" id="Layer_1" xmlns="http://www.w3.org/2000/svg" xmlns:xlink="http://www.w3.org/1999/xlink" x="0px" y="0px"
	 viewBox="0 0 64 64" style="enable-background:new 0 0 64 64;" xml:space="preserve">
<style type="text/css">
	.st0{fill:#2E5CCE;}
	.st1{fill:#FFFFFF;}
</style>
<circle class="st0" cx="32" cy="32" r="32"/>
<path class="st1" d="M27.3,13.3c1.3-1.7,2.9-2.9,4.8-3.6c6.2-2.3,13.1,2,13.7,8.5c0,0.3,0.1,0.4,0.4,0.5c2.9,1.1,4.7,3.2,5.2,6.3
	c0.7,4.1-2.4,8.2-6.5,8.8c-0.5,0.1-1,0.1-1.4,0.1c-8.1,0-16.2,0-24.4,0c-3.8,0-6.9-2.4-7.8-6.1c-1-4.3,1.9-8.6,6.2-9.3
	c0.3,0,0.4-0.1,0.4-0.4c0.3-4.4,5.2-7.1,9.1-4.7C27.2,13.2,27.2,13.3,27.3,13.3z"/>
<path class="st1" d="M26.7,44.3c0.7,1.6,1.5,3.1,1.9,4.8c0.3,1.2-0.7,2.5-1.8,2.5c-1.2,0-2.2-1.2-1.9-2.4c0.2-0.8,0.5-1.6,0.8-2.3
	C25.9,46,26.3,45.2,26.7,44.3z"/>
<path class="st1" d="M40.5,36.1c0.4,1,0.9,2,1.3,2.9c0.2,0.5,0.4,1.1,0.5,1.7c0.3,1.1-0.4,2.3-1.4,2.6c-1.3,0.3-2.5-0.9-2.3-2.4
	C38.6,40.1,39.9,36.9,40.5,36.1z"/>
<path class="st1" d="M36,44.4c0.6,1.5,1.2,2.9,1.7,4.4c0.3,0.8,0.1,1.5-0.5,2.1c-0.7,0.9-2,0.9-2.7,0C34,50.4,33.8,49.7,34,49
	C34.1,48.1,35.3,45.2,36,44.4z"/>
<path class="st1" d="M22.3,36.1c0.6,1.5,1.2,3,1.7,4.5c0.3,0.9-0.2,2-1,2.4c-1.2,0.7-2.6-0.2-2.8-1.6c0-0.3,0-0.6,0-0.8
	c0.5-1.5,1.1-3,1.7-4.5C22.1,36.1,22.2,36.1,22.3,36.1z"/>
<path class="st1" d="M31.4,36.1c0.6,1.5,1.2,3,1.7,4.5c0.3,0.9-0.1,1.9-0.9,2.3c-1.2,0.8-2.7-0.1-2.9-1.6c0-0.2,0-0.5,0-0.7
	c0.1-0.9,1.3-3.8,1.9-4.6C31.3,36.1,31.4,36.1,31.4,36.1z"/>
</svg>
