<?xml version="1.0" encoding="utf-8"?>
<!-- Generator: Adobe Illustrator 26.5.2, SVG Export Plug-In . SVG Version: 6.00 Build 0)  -->
<svg version="1.1" id="Layer_1" xmlns="http://www.w3.org/2000/svg" xmlns:xlink="http://www.w3.org/1999/xlink" x="0px" y="0px"
	 viewBox="0 0 64 64" style="enable-background:new 0 0 64 64;" xml:space="preserve">
<style type="text/css">
	.st0{fill:#FC343B;}
	.st1{fill:#FFFFFF;}
</style>
<circle class="st0" cx="32" cy="32" r="32"/>
<g>
	<path class="st1" d="M15.6,23.6c0-1.2,0.3-2.3,0.8-3.4c0.5-1.1,1.3-1.9,2.4-2.5s2.3-0.9,3.8-0.9c2.1,0,3.8,0.6,5.1,1.8
		c1.2,1.2,1.9,2.9,1.9,4.9c0,2.1-0.6,3.7-1.9,4.9c-1.2,1.2-2.9,1.8-5.1,1.8c-1.5,0-2.7-0.3-3.8-0.9s-1.9-1.4-2.4-2.5
		C15.9,25.9,15.6,24.8,15.6,23.6z M20.6,23.6c0,1.4,0.2,2.5,0.7,3.2c0.3,0.4,0.7,0.6,1.3,0.6s1-0.2,1.3-0.6c0.5-0.7,0.7-1.7,0.7-3.2
		c0-1.4-0.2-2.5-0.7-3.2c-0.3-0.4-0.7-0.6-1.3-0.6s-1,0.2-1.3,0.6C20.8,21.1,20.6,22.1,20.6,23.6z M37.4,16.8h3.7L26.3,44.3h-3.7
		L37.4,16.8z M34.1,37.5c0-1.2,0.3-2.3,0.8-3.4c0.5-1.1,1.3-1.9,2.4-2.5c1.1-0.6,2.3-0.9,3.8-0.9c2.2,0,3.9,0.6,5.1,1.8
		c1.2,1.2,1.9,2.9,1.9,4.9s-0.6,3.7-1.9,4.9c-1.2,1.2-2.9,1.8-5.1,1.8c-1.4,0-2.7-0.3-3.8-0.9c-1.1-0.6-1.9-1.4-2.4-2.5
		C34.4,39.8,34.1,38.7,34.1,37.5z M39.1,37.5c0,1.4,0.2,2.5,0.7,3.2c0.3,0.4,0.7,0.6,1.3,0.6s1-0.2,1.3-0.6c0.5-0.7,0.7-1.7,0.7-3.2
		s-0.2-2.5-0.7-3.2c-0.3-0.4-0.7-0.6-1.3-0.6s-1,0.2-1.3,0.6C39.3,35,39.1,36,39.1,37.5z"/>
</g>
</svg>
