<?xml version="1.0" encoding="utf-8"?>
<!-- Generator: Adobe Illustrator 26.5.2, SVG Export Plug-In . SVG Version: 6.00 Build 0)  -->
<svg version="1.1" id="Layer_1" xmlns="http://www.w3.org/2000/svg" xmlns:xlink="http://www.w3.org/1999/xlink" x="0px" y="0px"
	 viewBox="0 0 64 64" style="enable-background:new 0 0 64 64;" xml:space="preserve">
<style type="text/css">
	.st0{fill:#FC343B;}
	.st1{fill:#FFFFFF;}
</style>
<circle class="st0" cx="32" cy="32" r="32"/>
<g>
	<path class="st1" d="M13.9,39.4c1.2-1.8,2.6-3.4,4.5-4.5c-0.5-0.8-1-1.7-1.4-2.5c-0.2-0.3-0.3-0.6-0.5-0.8
		c-0.3-0.5-0.2-0.8,0.2-1.2c0.9-0.7,1.7-1.5,2.6-2.2c0.2-0.1,0.2-0.3,0.2-0.5c-0.3-1.6-0.3-3.2,0-4.8c0-0.3,0-0.4-0.2-0.6
		c-0.9-0.7-1.7-1.5-2.6-2.2c-0.4-0.4-0.5-0.7-0.2-1.2c1-1.8,2.1-3.6,3.1-5.4c0.3-0.6,0.6-0.7,1.2-0.5c1.1,0.4,2.2,0.8,3.3,1.1
		c0.1,0,0.3,0,0.4-0.1c1.3-1.1,2.7-1.9,4.2-2.5c0.2-0.1,0.3-0.2,0.3-0.4c0.2-1.1,0.4-2.3,0.6-3.4c0.1-0.6,0.4-0.8,0.9-0.8
		c2.1,0,4.2,0,6.3,0c0.6,0,0.8,0.2,1,0.8c0.2,1.1,0.4,2.3,0.6,3.4c0,0.2,0.1,0.3,0.3,0.4c1.5,0.6,2.9,1.4,4.2,2.4
		c0.2,0.2,0.4,0.2,0.6,0.1c1.1-0.4,2.1-0.8,3.2-1.1c0.6-0.2,0.9-0.1,1.1,0.4c1,1.8,2.1,3.6,3.1,5.4c0.3,0.6,0.3,0.9-0.2,1.3
		c-0.9,0.7-1.7,1.5-2.6,2.2c-0.2,0.1-0.2,0.3-0.2,0.5c0.3,1.6,0.3,3.3,0,4.9c0,0.2,0,0.3,0.2,0.5c0,0,0.1,0.1,0.1,0.1
		c0.5,0.5,1,1,1.9,0.8c2.7,0.3,4.2,3.3,2.6,5.6c-0.6,0.9-1.4,1.8-2.1,2.7c-2.3,2.8-4.6,5.5-6.8,8.3c-1,1.2-2.2,1.7-3.7,1.8
		c-3.6,0.1-7.2,0.1-10.9,0.2c-1.1,0-2.2,0.2-3.3,0.4c-0.9,0.2-1.7,0.6-2.4,1.4c0.1,0.1,0.2,0.2,0.3,0.3c1.1,1.2,1.1,2.9,0,4.1
		c-0.9,0.9-1.7,1.8-2.6,2.6c-1.2,1.1-2.9,1.1-4.1,0c-3.4-3.4-6.8-6.7-10.1-10.1c-1.2-1.2-1.1-2.9,0-4.1c0.8-0.8,1.6-1.6,2.4-2.4
		c1.2-1.2,2.8-1.3,4.1-0.2C13.8,39.4,13.9,39.4,13.9,39.4z M22.6,48.1c0.7-0.4,1.3-0.9,1.9-1.3c1.2-0.6,2.6-0.8,4-0.9
		c3.9-0.1,7.9-0.2,11.8-0.3c1,0,1.8-0.4,2.5-1.2c2.1-2.6,4.3-5.2,6.4-7.8c0.8-0.9,1.5-1.9,2.3-2.8c0.6-0.8,0.7-1.8,0.2-2.5
		c-0.7-1-2.2-1.2-3.1-0.2c-2,2-4,4.1-6,6.1c-0.1,0.1-0.2,0.3-0.1,0.4c0.2,0.6,0.2,1.2,0.1,1.9c-0.4,1.9-1.9,3.1-3.9,3.1
		c-2.2,0-4.5-0.1-6.7-0.2c-0.8,0-1.6,0-2.5-0.1c-0.5,0-0.9-0.3-0.9-0.8c0-0.4,0.4-0.8,0.9-0.8c0.2,0,0.4,0,0.6,0
		c2.9,0.1,5.7,0.2,8.6,0.2c1.1,0,2-0.7,2.3-1.7c0.3-1-0.2-2.1-1.2-2.6c-0.5-0.2-1-0.2-1.5-0.2c-3,0.1-6,0.1-9.1,0.2
		c-0.2,0-0.5-0.1-0.7-0.2c-0.6-0.2-1.2-0.5-1.8-0.8c-1.7-0.6-3.4-0.9-5.2-0.5c-3,0.7-4.9,2.8-6.5,5.2C17.6,43.1,20.1,45.6,22.6,48.1
		z M28.9,35c-0.2-1.5-0.8-2.6-1.8-3.6c-2-1.9-3-4.3-3.1-7c-0.2-6.4,5.9-11.4,12.1-9.8c3.8,0.9,6.3,3.3,7.3,7.1c1,3.7,0,7-2.7,9.8
		c-0.4,0.4-0.8,0.9-1.1,1.4c-0.4,0.6-0.6,1.4-0.7,2.2c0.8,0.1,1.5,0.3,2.2,0.8c0.1,0,0.2,0,0.3,0c0.4-0.3,0.9-0.6,1.2-1
		c1.7-1.7,3.4-3.4,5.2-5.1c-0.3-0.3-0.6-0.5-0.9-0.8c-0.3-0.3-0.4-0.6-0.3-1c0.4-1.8,0.4-3.6,0-5.4c-0.1-0.4,0-0.7,0.3-1
		c0.7-0.6,1.3-1.2,2-1.7c0.2-0.2,0.5-0.4,0.7-0.6c-0.8-1.5-1.7-2.9-2.5-4.3c-0.1-0.2-0.2-0.2-0.4-0.1c-1.1,0.4-2.1,0.7-3.2,1.1
		c-0.3,0.1-0.7,0.1-0.9-0.2c-1.4-1.3-3-2.2-4.8-2.8c-0.4-0.1-0.6-0.4-0.6-0.7c-0.1-0.5-0.2-1-0.3-1.5c-0.1-0.7-0.3-1.4-0.4-2
		c-0.1,0-0.1,0-0.1,0c-1.6,0-3.3,0-4.9,0c-0.2,0-0.3,0.1-0.3,0.3c-0.2,1.1-0.4,2.2-0.6,3.2c-0.1,0.4-0.3,0.7-0.7,0.8
		c-1.7,0.6-3.3,1.5-4.7,2.7c-0.3,0.3-0.6,0.3-1,0.2c-1-0.4-2.1-0.7-3.1-1.1c-0.2-0.1-0.3,0-0.4,0.2c-0.8,1.4-1.6,2.7-2.3,4.1
		c-0.1,0.2-0.1,0.3,0.1,0.4c0.8,0.7,1.6,1.4,2.4,2.1c0.3,0.3,0.5,0.6,0.4,1.1c-0.4,1.8-0.4,3.6,0,5.4c0.1,0.4,0,0.7-0.4,1
		c-0.8,0.7-1.6,1.4-2.5,2.1c-0.2,0.1-0.2,0.2-0.1,0.4c0.3,0.5,0.6,1,0.8,1.4c0.3,0.4,0.5,0.9,0.8,1.3c1.5-0.5,3-0.7,4.5-0.5
		C25.9,33.9,27.4,34.3,28.9,35z M34.3,35.1c0-0.2,0-0.4,0-0.6c0.1-2.3,0.1-4.5,0.2-6.8c0-0.5,0.2-0.9,0.5-1.3
		c0.8-0.8,1.5-1.6,2.3-2.4c0.4-0.4,0.9-0.4,1.2-0.1c0.3,0.3,0.3,0.8-0.1,1.2c-0.7,0.8-1.4,1.5-2.2,2.3c-0.2,0.2-0.2,0.4-0.3,0.6
		c-0.1,2-0.1,4-0.2,5.9c0,0.4,0,0.8,0,1.1c0.5,0,0.9,0,1.4,0c0.2-2,1.2-3.6,2.5-5c3.9-4,2.8-10.6-2.1-13.2
		c-3.6-1.9-8.1-0.9-10.5,2.4c-2.5,3.3-2.2,7.9,0.7,10.8c0.4,0.4,0.8,0.9,1.2,1.3c0.7,1,1.1,2.1,1.3,3.3c0,0.1,0.1,0.3,0.2,0.3
		c0.4,0,0.8,0,1.2,0c0-0.1,0-0.1,0-0.2c-0.1-2.4-0.1-4.7-0.2-7.1c0-0.2-0.1-0.3-0.2-0.5c-0.7-0.8-1.5-1.5-2.2-2.3
		c-0.4-0.4-0.4-0.9-0.1-1.2c0.3-0.3,0.8-0.3,1.2,0.1c0.8,0.8,1.6,1.6,2.3,2.4c0.4,0.4,0.5,0.8,0.5,1.3c0.1,2.3,0.1,4.7,0.2,7
		c0,0.1,0,0.2,0,0.3C33.7,35.1,34,35.1,34.3,35.1z M23.3,51.6c0-0.4-0.2-0.7-0.4-1c-3.3-3.3-6.7-6.7-10-10c-0.6-0.6-1.4-0.6-2,0
		c-0.8,0.8-1.5,1.5-2.3,2.3c-0.8,0.8-0.8,1.5,0,2.2c1.4,1.4,2.8,2.8,4.2,4.2c1.9,1.9,3.8,3.8,5.6,5.6c0.7,0.7,1.4,0.7,2.1,0
		c0.8-0.8,1.6-1.6,2.4-2.4C23.1,52.3,23.3,52,23.3,51.6z"/>
	<path class="st1" d="M11.4,43.3c0.5,0,1.2,0.7,1.2,1.2c0,0.3-0.1,0.6-0.4,0.7c-0.3,0.2-0.6,0.1-0.8-0.1c-0.2-0.2-0.4-0.4-0.6-0.6
		c-0.2-0.3-0.2-0.6-0.1-0.8C10.9,43.5,11.1,43.3,11.4,43.3z"/>
</g>
</svg>
