<?xml version="1.0" encoding="utf-8"?>
<!-- Generator: Adobe Illustrator 26.5.2, SVG Export Plug-In . SVG Version: 6.00 Build 0)  -->
<svg version="1.1" id="Layer_1" xmlns="http://www.w3.org/2000/svg" xmlns:xlink="http://www.w3.org/1999/xlink" x="0px" y="0px"
	 viewBox="0 0 64 64" style="enable-background:new 0 0 64 64;" xml:space="preserve">
<style type="text/css">
	.st0{fill:#DDD30B;}
	.st1{fill:#FFFFFF;}
	.st2{font-family:'MyriadPro-Regular';}
	.st3{font-size:22.0966px;}
</style>
<circle class="st0" cx="32" cy="32" r="32"/>
<g>
	<path class="st1" d="M32.6,46.9c1.9-1.1,3.5-2.5,4.9-4.2c5.1-6.4,3.9-16.2-2.8-21.1c-0.9-0.7-1.9-1.3-3-1.8
		c-0.3-0.1-0.3-0.2-0.1-0.5c2.3-3,4.6-6,7-9.1c4.4,5.8,8.8,11.5,13.2,17.2c-0.3,0.2-0.5,0.1-0.7,0.1c-1.6,0-3.1,0-4.7,0
		c-0.6,0-0.8,0.1-0.8,0.7c0,5.9,0,11.8,0,17.8c0,1,0.1,0.9-0.9,0.9C40.7,46.9,36.6,46.9,32.6,46.9z"/>
	<path class="st1" d="M25.6,46.9c-7.5,0-13.4-6.1-13.4-13.6C12.3,26,18.4,20,25.6,20c7.5,0,13.5,6,13.4,13.5
		C39,40.9,33,46.9,25.6,46.9z M25.7,21.6c-6.3-0.1-11.8,5.2-11.8,11.6c-0.1,6.6,5.1,12,11.7,12.1c6.4,0.1,11.8-5.2,11.9-11.6
		C37.5,27,32.4,21.7,25.7,21.6z"/>
</g>
<text transform="matrix(1 0 0 1 13.075 40.1404)" class="st1 st2 st3"> €</text>
</svg>
