<?xml version="1.0" encoding="UTF-8"?><svg id="Layer_1" xmlns="http://www.w3.org/2000/svg" viewBox="0 0 64 64"><circle cx="32" cy="32" r="32" style="fill:#2e5cce;"/><path d="M32.01,7.77c.36,.62,.71,1.2,1.05,1.78,3.64,6.22,7.26,12.45,10.93,18.66,5,8.45-.14,19.35-9.87,20.87-7.71,1.2-14.95-4.24-15.93-11.99-.41-3.27,.29-6.29,1.96-9.13,3.09-5.22,6.14-10.46,9.2-15.7,.83-1.41,1.65-2.82,2.47-4.23,.04-.08,.1-.14,.19-.26Zm11.07,29.61c.03-.74-.27-1.18-.85-1.21-.6-.04-.95,.37-1.01,1.11-.22,2.64-1.59,5.44-5.04,6.33-.6,.16-.9,.63-.77,1.15,.14,.53,.66,.82,1.26,.63,.58-.18,1.17-.37,1.71-.64,3.01-1.53,4.34-4.14,4.69-7.37Z" style="fill:#fff;"/></svg>